<svg width="1024" height="1024" viewBox="0 0 1024 1024" fill="none" xmlns="http://www.w3.org/2000/svg">
<path fill-rule="evenodd" clip-rule="evenodd" d="M781.581 290.351C738.667 258.353 690.673 240.638 637.598 237.208C605.254 235.284 573.061 234.687 541.018 235.42C537.254 235.8 533.771 236.972 530.572 238.94C518.499 244.898 507.398 252.417 497.267 261.494C488.633 266.406 479.513 269.258 469.906 270.047C451.918 270.396 435.809 264.937 421.582 253.666C416.671 247.815 412.841 241.33 410.091 234.207C406.507 231.408 402.522 230.085 398.134 230.236C379.123 230.777 360.04 230.985 340.887 230.86C338.861 231.318 337.038 232.155 335.417 233.37C331.297 236.847 328.154 241.017 325.985 245.881C326.581 290.182 326.179 334.313 324.779 378.277C324.79 383.607 324.802 388.934 324.813 394.264C326.841 403.878 332.663 410.026 342.277 412.711C361.193 412.67 380.11 412.629 399.027 412.587C401.757 411.778 404.41 410.774 406.986 409.572C411.645 401.652 416.109 393.815 420.376 386.062C428.81 370.916 443.563 364.056 464.636 365.482C466.259 365.723 473.484 366.578 478.582 368.449C501.737 376.947 503.432 392.929 508.556 417.345C508.909 427.755 509.926 438.078 511.61 448.313C514.878 453.281 519.201 456.935 524.577 459.276C571.656 458.84 618.779 457.737 665.949 455.97C671.535 452.357 675.175 447.352 676.869 440.958C676.841 428.302 676.814 415.645 676.786 402.989C682.656 373.938 700.215 359.911 729.464 360.908C764.494 368.982 795.56 385.068 822.659 409.166L835.626 420.128C835.626 420.128 851.602 433.306 867.054 450.535C873.126 457.544 878.784 464.858 884.027 472.481C892.092 477.249 897.896 475.072 901.437 465.948C902.564 463.936 902.726 461.771 901.92 459.452C891.286 423.135 874.455 390.031 851.426 360.142C840.526 347.464 829.381 334.997 817.992 322.745C806.083 311.679 793.946 300.881 781.581 290.351Z" fill="#FF7262"/>
<path fill-rule="evenodd" clip-rule="evenodd" d="M529 473C571.667 473 614.333 473 657 473C657 627.333 657 781.667 657 936C614.333 936 571.667 936 529 936C529 781.667 529 627.333 529 473Z" fill="#0ACF83"/>
<path fill-rule="evenodd" clip-rule="evenodd" d="M354 613C397.333 613 440.667 613 484 613C484 721.667 484 830.333 484 939C440.667 939 397.333 939 354 939C354 830.333 354 721.667 354 613Z" fill="#A259FF"/>
<path fill-rule="evenodd" clip-rule="evenodd" d="M704 548C744.667 548 785.333 548 826 548C826 678.666 826 809.334 826 940C785.333 940 744.667 940 704 940C704 809.334 704 678.666 704 548Z" fill="#1ABCFE"/>
<path fill-rule="evenodd" clip-rule="evenodd" d="M183 746C225.666 746 268.334 746 311 746C311 809.667 311 873.333 311 937C268.334 937 225.666 937 183 937C183 873.333 183 809.667 183 746Z" fill="#F24E1E"/>
<path fill-rule="evenodd" clip-rule="evenodd" d="M925.179 958.095C931.348 960.685 933.852 965.498 932.691 972.533C933.828 978.614 931.826 982.921 926.681 985.451C650.801 987.22 374.86 987.474 98.8604 986.211C92.5173 983.84 90.0128 979.281 91.3484 972.533C90.2832 966.553 92.2859 961.993 97.358 958.855C373.297 958.095 649.238 957.841 925.179 958.095Z" fill="#FF7262"/>
</svg>
