<svg width="842" height="908" viewBox="0 0 842 908" fill="none" xmlns="http://www.w3.org/2000/svg">
<path fill-rule="evenodd" clip-rule="evenodd" d="M690.581 72.1412C647.667 33.7496 599.673 12.4946 546.598 8.37872C514.254 6.07042 482.061 5.35501 450.018 6.2337C446.254 6.68953 442.771 8.09652 439.572 10.4571C427.499 17.6063 416.398 26.6268 406.267 37.5187C397.633 43.4121 388.513 46.8335 378.906 47.7806C360.918 48.1993 344.809 41.6489 330.582 28.1258C325.671 21.1061 321.841 13.3247 319.091 4.778C315.507 1.41977 311.522 -0.166689 307.134 0.0138313C288.123 0.66301 269.04 0.913153 249.887 0.763061C247.861 1.31265 246.038 2.31607 244.417 3.77454C240.297 7.94657 237.154 12.9493 234.985 18.785C235.581 71.9387 235.179 124.889 233.779 177.638C233.79 184.032 233.802 190.425 233.813 196.819C235.841 208.354 241.663 215.731 251.277 218.953C270.193 218.903 289.11 218.854 308.027 218.804C310.757 217.833 313.41 216.629 315.986 215.187C320.645 205.683 325.109 196.281 329.376 186.978C337.81 168.806 352.563 160.575 373.636 162.286C375.259 162.575 382.484 163.601 387.582 165.846C410.737 176.042 412.432 195.218 417.556 224.512C417.909 237.003 418.926 249.388 420.61 261.669C423.878 267.629 428.201 272.013 433.577 274.822C480.656 274.299 527.779 272.975 574.949 270.856C580.535 266.52 584.175 260.515 585.869 252.844C585.841 237.66 585.814 222.472 585.786 207.288C591.656 172.432 609.215 155.602 638.464 156.798C673.494 166.485 704.56 185.786 731.659 214.699L744.626 227.852C744.626 227.852 760.602 243.663 776.054 264.335C782.126 272.744 787.784 281.52 793.027 290.666C801.092 296.387 806.896 293.775 810.437 282.828C811.564 280.414 811.726 277.815 810.92 275.034C800.286 231.459 783.455 191.74 760.426 155.879C749.527 140.667 738.381 125.71 726.992 111.009C715.083 97.7316 702.946 84.776 690.581 72.1412Z" fill="#FF7262"/>
<path fill-rule="evenodd" clip-rule="evenodd" d="M438 291.289C480.667 291.289 523.333 291.289 566 291.289C566 476.462 566 661.635 566 846.809C523.333 846.809 480.667 846.809 438 846.809C438 661.635 438 476.462 438 291.289Z" fill="#0ACF83"/>
<path fill-rule="evenodd" clip-rule="evenodd" d="M263 459.265C306.333 459.265 349.667 459.265 393 459.265C393 589.646 393 720.026 393 850.408C349.667 850.408 306.333 850.408 263 850.408C263 720.026 263 589.646 263 459.265Z" fill="#A259FF"/>
<path fill-rule="evenodd" clip-rule="evenodd" d="M613 381.276C653.667 381.276 694.333 381.276 735 381.276C735 538.053 735 694.831 735 851.608C694.333 851.608 653.667 851.608 613 851.608C613 694.831 613 538.053 613 381.276Z" fill="#1ABCFE"/>
<path fill-rule="evenodd" clip-rule="evenodd" d="M92 618.842C134.666 618.842 177.334 618.842 220 618.842C220 695.231 220 771.62 220 848.009C177.334 848.009 134.666 848.009 92 848.009C92 771.62 92 695.231 92 618.842Z" fill="#F24E1E"/>
<path fill-rule="evenodd" clip-rule="evenodd" d="M834.179 873.319C840.348 876.426 842.852 882.201 841.691 890.642C842.828 897.938 840.826 903.106 835.681 906.142C559.801 908.264 283.86 908.569 7.8604 907.054C1.51728 904.209 -0.987215 898.738 0.348416 890.642C-0.716783 883.467 1.28591 877.996 6.35801 874.231C282.297 873.319 558.238 873.015 834.179 873.319Z" fill="#FF7262"/>
</svg>
