<svg width="394" height="590" viewBox="0 0 394 590" fill="none" xmlns="http://www.w3.org/2000/svg">
<path d="M197 253.946C197 222.312 222.645 196.667 254.279 196.667H336.719C368.355 196.667 394 222.312 394 253.947V336.053C394 367.688 368.355 393.333 336.719 393.333H254.279C222.645 393.333 197 367.688 197 336.054V253.946Z" fill="#1ABCFE"/>
<path d="M0 464.934C0 425.39 32.0568 393.333 71.6009 393.333H197V518.399C197 557.943 164.943 590 125.399 590H71.6009C32.0568 590 0 557.943 0 518.399L0 464.934Z" fill="#0ACF83"/>
<path d="M197 0V196.667H322.399C361.943 196.667 394 164.61 394 125.066V71.6009C394 32.0569 361.943 0 322.399 0L197 0Z" fill="#FF7262"/>
<path d="M0 125.36C0 164.742 31.9249 196.667 71.3062 196.667L197 196.667L197 1.52588e-05L71.3062 1.52588e-05C31.9249 1.52588e-05 0 31.9249 0 71.3062L0 125.36Z" fill="#F24E1E"/>
<path d="M0 321.732C0 361.276 32.0568 393.333 71.6009 393.333H197L197 196.667L71.6009 196.667C32.0568 196.667 0 228.723 0 268.268L0 321.732Z" fill="#A259FF"/>
</svg>
